<?xml version="1.0" encoding="utf-8"?>
<!-- Generator: Adobe Illustrator 15.1.0, SVG Export Plug-In . SVG Version: 6.00 Build 0)  -->
<!DOCTYPE svg PUBLIC "-//W3C//DTD SVG 1.1//EN" "http://www.w3.org/Graphics/SVG/1.1/DTD/svg11.dtd">
<svg version="1.1" id="Layer_1" xmlns="http://www.w3.org/2000/svg" xmlns:xlink="http://www.w3.org/1999/xlink" x="0px" y="0px"
	 width="612px" height="792px" viewBox="0 0 612 792" enable-background="new 0 0 612 792" xml:space="preserve">
<path fill-rule="evenodd" clip-rule="evenodd" stroke="#000000" stroke-width="2.9999" stroke-linecap="round" stroke-linejoin="round" stroke-miterlimit="22.9256" d="
	M265.553,452.042c-0.13-1.196,0.216-1.364,0.451-1.493c0.234-0.128,0.357-0.218,0.369-0.347c0.011-0.128-0.089-0.296-0.185-0.436
	s-0.184-0.251-0.201-0.425c-0.017-0.173,0.039-0.407,0.218-0.86c0.179-0.452,0.481-1.123,0.666-1.548
	c0.184-0.425,0.251-0.604,0.151-0.845c-0.101-0.24-0.369-0.542-0.291-0.788c0.079-0.246,0.503-0.436,0.766-0.727
	c0.263-0.29,0.363-0.682,0.52-0.922s0.369-0.33,0.38-0.576c0.011-0.245-0.179-0.647-0.346-0.933
	c-0.168-0.285-0.313-0.453-0.28-0.627c0.034-0.173,0.246-0.352,0.274-0.726c0.027-0.375-0.129-0.944-0.124-1.51
	c0.005-0.563,0.173-1.123,0.341-1.688c0.167-0.564,0.335-1.135,0.565-1.621s0.52-0.889,0.464-1.515
	c-0.056-0.626-0.458-1.476-0.156-2.146c0.302-0.671,1.308-1.163,1.956-1.51s0.939-0.548,1.196-0.581
	c0.257-0.033,0.48,0.101,0.704-0.212c0.224-0.313,0.448-1.073,0.537-1.777s0.044-1.353,0.492-1.923s1.386-1.062,1.9-1.855
	s0.604-1.89,0.503-3.097s-0.391-2.526-0.782-4.002c-0.392-1.476-0.883-3.107-1.677-5.074c-0.793-1.968-1.889-4.271-2.347-5.779
	c-0.458-1.509-0.28-2.224-0.167-3.029c0.111-0.805,0.156-1.699,0.268-2.571c0.112-0.871,0.291-1.721,0.38-2.727
	s0.089-2.169-0.492-3.6s-1.744-3.13-2.191-4.449c-0.447-1.319-0.179-2.258,0.224-2.839c0.402-0.582,0.939-0.805,0.939-1.431
	s-0.537-1.654-0.917-2.504c-0.38-0.85-0.604-1.52-0.47-2.213c0.134-0.693,0.626-1.409,1.341-1.476
	c0.715-0.067,1.654,0.514,2.862,0.626c1.207,0.111,2.683-0.246,3.264-1.118c0.582-0.872,0.269-2.258,0.291-3.241
	c0.022-0.984,0.38-1.565,0.112-2.348c-0.269-0.783-1.163-1.766-1.118-2.8c0.044-1.034,1.028-2.117,1.632-2.369
	c0.604-0.251,0.828,0.331,1.252,0.71s1.05,0.559,1.743-0.151c0.693-0.71,1.453-2.31,1.884-3.461c0.43-1.151,0.531-1.854,0.615-2.955
	c0.083-1.1,0.151-2.598,0.319-3.548c0.167-0.95,0.436-1.353,0.804-1.721c0.369-0.369,0.838-0.705,1.454-1.308
	c0.615-0.604,1.375-1.475,1.509-2.19c0.134-0.716-0.358-1.274-0.738-1.767c-0.38-0.492-0.648-0.917-0.615-1.263
	c0.034-0.347,0.369-0.615,0.895-1.163c0.525-0.548,1.241-1.375,1.554-2.057c0.313-0.682,0.224-1.219,0.369-1.532
	c0.146-0.313,0.525-0.402,0.704-0.771c0.179-0.369,0.156-1.018,0.626-1.61c0.469-0.592,1.431-1.129,2.09-1.487
	c0.659-0.358,1.017-0.537,1.118-1.241s-0.056-1.934,0.101-2.66c0.157-0.727,0.626-0.95,0.872-1.375s0.268-1.051,0.537-1.621
	c0.268-0.571,0.782-1.084,0.883-1.889c0.101-0.805-0.212-1.901-0.391-2.649c-0.179-0.749-0.224-1.151,0.079-1.61
	c0.301-0.458,0.95-0.972,1.207-1.431s0.123-0.86-0.045-1.442s-0.369-1.341-0.492-1.923c-0.123-0.581-0.167-0.983,0.392-1.665
	s1.721-1.644,2.236-2.604c0.514-0.961,0.38-1.923,0.659-2.515s0.973-0.816,1.521-1.218c0.547-0.402,0.95-0.983,1.174-1.554
	c0.223-0.57,0.268-1.129-0.201-1.755c-0.47-0.626-1.454-1.319-1.565-1.934s0.648-1.151,0.47-1.967
	c-0.179-0.816-1.297-1.912-1.565-2.583c-0.268-0.67,0.313-0.917,0.995-1.33s1.464-0.995,2.157-1.542
	c0.693-0.548,1.297-1.062,1.386-1.722s-0.335-1.464-0.469-2.068c-0.135-0.604,0.022-1.006,0.313-1.453s0.716-0.939,0.771-1.42
	c0.056-0.48-0.257-0.95-0.178-1.542c0.078-0.593,0.547-1.308,0.805-1.867c0.257-0.559,0.302-0.961-0.156-1.71
	c-0.458-0.749-1.42-1.845-1.722-2.839c-0.302-0.995,0.056-1.889,0.291-2.739s0.347-1.655,0.302-2.348
	c-0.045-0.693-0.246-1.274-0.257-1.877c-0.012-0.604,0.167-1.23,0.044-2.448s-0.548-3.029-0.771-4.371
	c-0.223-1.341-0.246-2.212-0.402-3.084c-0.157-0.872-0.448-1.744-0.537-2.56c-0.089-0.816,0.022-1.577-0.1-2.381
	c-0.124-0.805-0.481-1.654-0.693-2.761s-0.279-2.471-0.291-3.923c-0.011-1.454,0.033-2.996,0.28-4.047
	c0.246-1.051,0.693-1.609,1.006-1.984c0.313-0.375,0.492-0.565,0.637-0.436c0.146,0.128,0.257,0.575,0.604,0.749
	c0.347,0.173,0.928,0.072,1.431-0.14s0.928-0.536,1.112-1.101c0.185-0.565,0.129-1.37,0.067-2.023
	c-0.062-0.654-0.128-1.157,0.022-1.515s0.52-0.57,0.877-0.811c0.357-0.24,0.705-0.508,0.732-0.995
	c0.028-0.486-0.263-1.191-0.464-1.85c-0.201-0.66-0.313-1.274-0.257-1.805c0.056-0.531,0.279-0.978,0.335-1.487
	c0.056-0.508-0.055-1.079-0.178-1.71c-0.123-0.632-0.257-1.325-0.436-1.928c-0.179-0.604-0.402-1.118-0.872-1.632
	c-0.47-0.515-1.185-1.029-1.576-1.632c-0.392-0.604-0.458-1.297-0.559-2.292s-0.235-2.292,0.123-3.118
	c0.358-0.828,1.208-1.185,1.867-1.677c0.659-0.492,1.129-1.118,1.296-1.867c0.168-0.749,0.034-1.621,0.324-2.459
	s1.006-1.643,1.587-2.134c0.581-0.492,1.028-0.671,1.207-1.297s0.09-1.699-0.1-2.683c-0.19-0.984-0.48-1.878-0.437-3.219
	c0.046-1.341,0.426-3.13,0.873-4.248s0.961-1.564,1.564-1.855c0.604-0.291,1.297-0.425,1.688-0.906
	c0.391-0.48,0.48-1.308,0.425-2.124c-0.057-0.816-0.258-1.621-0.48-2.448c-0.224-0.828-0.47-1.677-0.615-2.604
	s-0.19-1.934,0.111-2.225c0.302-0.291,0.95,0.134,1.387-0.022c0.436-0.156,0.659-0.895,0.704-1.621
	c0.045-0.727-0.09-1.442-0.012-2.18c0.079-0.738,0.369-1.498,0.648-2.258s0.548-1.52,0.761-2.313
	c0.212-0.794,0.368-1.621,0.479-2.481c0.112-0.861,0.179-1.755,0.279-3.007c0.101-1.252,0.235-2.861,0.168-3.957
	s-0.335-1.677-0.626-2.392s-0.604-1.565-0.492-2.426c0.112-0.861,0.648-1.733,0.917-2.526s0.269-1.508,0.682-1.933
	c0.413-0.425,1.241-0.559,2.023-1.084s1.521-1.442,1.788-2.392c0.269-0.951,0.067-1.934-0.357-2.538s-1.073-0.827-1.096-1.252
	s0.582-1.051,0.56-1.732c-0.022-0.682-0.671-1.42-1.063-2.415c-0.391-0.995-0.525-2.247-0.346-4.639
	c0.179-2.392,0.67-5.924,0.76-8.148c0.089-2.224-0.225-3.14,0.188-4.079c0.414-0.939,1.554-1.9,2.091-2.906
	c0.536-1.005,0.469-2.057-0.012-2.481s-1.375-0.224-2.057,0.034c-0.682,0.257-1.151,0.57-1.621,0.559
	c-0.469-0.011-0.938-0.347-1.106-1.71c-0.168-1.364-0.033-3.756,0.234-5.433c0.269-1.677,0.671-2.638,1.141-2.761
	c0.47-0.123,1.006,0.592,1.644,0.839c0.637,0.246,1.374,0.022,1.889-0.402c0.514-0.425,0.805-1.051,0.928-1.923
	c0.123-0.873,0.078-1.99,0.201-3.376s0.414-3.041,0.782-5.913c0.369-2.873,0.815-6.964,1.162-9.21
	c0.347-2.247,0.592-2.649,0.85-3.029c0.257-0.38,0.525-0.738,0.692-1.442c0.168-0.704,0.235-1.755,0.246-2.638
	c0.012-0.883-0.033-1.599-0.279-2.291c-0.246-0.693-0.693-1.364-1.118-1.934c-0.424-0.57-0.826-1.04-0.737-1.61
	c0.09-0.57,0.671-1.241,0.961-1.889c0.291-0.648,0.29-1.274,0.089-1.833c-0.201-0.559-0.604-1.051-0.805-1.565
	s-0.201-1.051-0.179-1.922c0.022-0.872,0.067-2.079,0.201-2.929s0.357-1.341,0.368-1.867c0.012-0.525-0.189-1.084-0.156-1.521
	c0.034-0.436,0.302-0.749,0.515-1.531c0.212-0.783,0.369-2.034,0.324-3.186s-0.291-2.202-0.437-2.884
	c-0.145-0.682-0.189-0.995-0.335-1.23s-0.392-0.392-0.525-0.615c-0.134-0.224-0.156-0.514-0.212-1.196
	c-0.057-0.682-0.146-1.754-0.414-2.615s-0.716-1.509-0.917-2.045c-0.201-0.537-0.156-0.961-0.089-1.431
	c0.067-0.47,0.156-0.984,0.089-1.632c-0.066-0.648-0.29-1.431-0.458-2.292s-0.279-1.799-0.358-2.504
	c-0.078-0.704-0.122-1.173-0.101-2.079c0.022-0.905,0.112-2.247,0.18-3.141c0.066-0.894,0.111-1.341-0.157-1.799
	c-0.268-0.458-0.849-0.928-0.737-1.42c0.112-0.492,0.916-1.006,1.52-1.173c0.604-0.168,1.007,0.011,1.521,0.134
	c0.515,0.123,1.141,0.189,1.621-0.022c0.48-0.212,0.816-0.704,1.129-0.827c0.313-0.123,0.604,0.123,0.973,0.111
	c0.369-0.011,0.816-0.279,1.386-0.727c0.57-0.447,1.264-1.073,1.599-1.721c0.336-0.648,0.313-1.319,0.022-2.168
	s-0.85-1.877-1.073-2.805c-0.224-0.928-0.111-1.755,0.269-2.269c0.38-0.514,1.028-0.716,1.944-1.04
	c0.917-0.324,2.103-0.771,2.974-1.208c0.872-0.436,1.432-0.861,1.845-0.548c0.413,0.313,0.682,1.364,1.14,2.214
	c0.459,0.849,1.107,1.498,1.565,2.325s0.727,1.833,1.017,2.459c0.291,0.625,0.604,0.872,1.151,1.163
	c0.548,0.291,1.331,0.625,1.644,1.006c0.313,0.38,0.157,0.805-0.056,1.118s-0.48,0.514-0.414,0.816
	c0.067,0.302,0.47,0.704,0.682,1.185c0.213,0.48,0.235,1.04,0.269,1.632c0.034,0.592,0.079,1.218,0.213,2.012
	c0.134,0.794,0.357,1.755,0.659,2.717c0.302,0.961,0.682,1.922,1.051,2.716c0.368,0.793,0.727,1.419,0.626,1.912
	c-0.101,0.492-0.659,0.849-0.794,1.363c-0.134,0.514,0.157,1.185,1.129,1.979c0.973,0.793,2.627,1.71,4.203,2.571
	c1.576,0.86,3.074,1.666,3.645,2.303c0.569,0.637,0.212,1.106-0.671,1.99c-0.883,0.883-2.292,2.179-3.119,2.984
	c-0.827,0.805-1.073,1.118-0.793,1.554c0.279,0.436,1.084,0.995,1.531,1.442s0.536,0.782,0.581,1.229s0.045,1.006,0.033,1.476
	c-0.011,0.469-0.033,0.849-0.335,1.039c-0.302,0.19-0.883,0.19-1.644,0.235c-0.76,0.044-1.698,0.134-1.979,0.414
	c-0.279,0.279,0.101,0.749,0.347,1.263s0.357,1.073,0.47,1.632c0.111,0.559,0.224,1.118,0.134,1.464
	c-0.089,0.347-0.38,0.481-0.234,0.928c0.146,0.447,0.727,1.207,1.677,2.012c0.95,0.805,2.27,1.655,2.481,2.348
	c0.212,0.693-0.682,1.229-1.039,1.867c-0.358,0.637-0.18,1.375,0.346,1.71s1.397,0.269,1.979,0.537
	c0.581,0.268,0.871,0.872,1.486,1.878c0.614,1.006,1.554,2.415,1.944,3.622c0.392,1.208,0.234,2.213,0.134,3.152
	s-0.146,1.811,0.089,2.493c0.235,0.682,0.749,1.173,1.085,1.721c0.335,0.547,0.491,1.151,0.559,2.012
	c0.067,0.86,0.045,1.978,0.213,2.649c0.167,0.67,0.524,0.895,0.871,1.151c0.347,0.257,0.683,0.548,0.827,1.051
	c0.146,0.503,0.101,1.218,0.157,1.833c0.056,0.615,0.212,1.129,0.224,1.576c0.011,0.447-0.123,0.828,0.056,1.319
	s0.671,1.095,0.86,1.811c0.19,0.715,0.079,1.542-0.011,2.503s-0.156,2.057-0.067,2.784c0.09,0.727,0.336,1.084,1.163,1.286
	c0.826,0.202,2.235,0.246,3.588,0c1.353-0.246,2.648-0.783,3.778-1.23c1.129-0.447,2.09-0.805,2.593-0.85s0.548,0.224,1.085,0.838
	c0.536,0.615,1.564,1.576,2.078,2.18c0.515,0.604,0.515,0.85-0.056,2.605c-0.569,1.754-1.71,5.018-2.632,8.02
	s-1.626,5.74-2.079,7.171c-0.452,1.431-0.653,1.554-1.576,2.012c-0.922,0.458-2.564,1.251-4.873,2.23
	c-2.309,0.978-5.282,2.14-7.088,2.889c-1.805,0.749-2.442,1.084-2.777,1.487c-0.335,0.402-0.369,0.872-0.554,1.084
	c-0.184,0.212-0.52,0.167-0.85,0.403c-0.329,0.234-0.653,0.749-1.106,1.229c-0.452,0.48-1.034,0.927-1.464,1.24
	c-0.431,0.313-0.71,0.492-0.816,0.794c-0.105,0.302-0.039,0.727,0.363,1s1.141,0.397,1.644,0.822s0.771,1.151,1.09,1.828
	c0.318,0.676,0.688,1.302,0.866,1.76c0.179,0.458,0.168,0.749,0.017,0.961c-0.15,0.212-0.441,0.347-0.698,0.458
	c-0.258,0.112-0.481,0.201-0.727,0.173c-0.246-0.028-0.515-0.173-0.811-0.206c-0.297-0.034-0.62,0.044-0.9,0.173
	c-0.279,0.128-0.514,0.307-0.688,0.469c-0.173,0.162-0.284,0.308-0.234,0.559c0.05,0.252,0.263,0.609,0.386,0.951
	c0.123,0.341,0.156,0.665,0.05,1.095c-0.105,0.43-0.352,0.967-0.452,1.543c-0.101,0.575-0.057,1.19,0.201,1.576
	c0.257,0.386,0.727,0.542,0.833,0.883c0.106,0.341-0.151,0.866-0.168,1.19c-0.017,0.324,0.207,0.447,0.604,0.793
	c0.396,0.347,0.967,0.917,1.414,2.426c0.447,1.509,0.771,3.957,0.766,5.293c-0.006,1.335-0.341,1.56-0.944,1.861
	s-1.476,0.682-1.935,1.062c-0.458,0.38-0.503,0.76-0.559,1.386s-0.123,1.498-0.033,2.09c0.089,0.592,0.335,0.905,1.229,2.035
	c0.895,1.129,2.437,3.074,3.163,4.158c0.727,1.084,0.638,1.308,0.503,1.531c-0.134,0.224-0.313,0.447-0.425,0.827
	c-0.111,0.38-0.156,0.917-0.38,1.207s-0.626,0.335-1.498,0.459c-0.871,0.123-2.213,0.323-3.219,0.357
	c-1.006,0.034-1.677-0.101-2.202-0.168c-0.525-0.067-0.905-0.067-1.241,0.257c-0.335,0.324-0.626,0.973-0.749,1.442
	c-0.122,0.469-0.078,0.76,0.157,1.073c0.234,0.313,0.658,0.648,0.67,0.916c0.011,0.269-0.392,0.469-0.794,0.928
	s-0.805,1.173-1.051,1.755s-0.335,1.028-0.392,1.409c-0.056,0.38-0.078,0.693-0.347,0.95c-0.268,0.257-0.782,0.458-1.005,0.827
	c-0.224,0.369-0.157,0.905-0.291,1.263c-0.134,0.357-0.47,0.537-0.704,1.341c-0.235,0.805-0.369,2.235-0.648,2.861
	s-0.704,0.447-1.085,0.593c-0.38,0.145-0.715,0.615-0.905,1.14c-0.189,0.525-0.234,1.106-0.368,1.632
	c-0.135,0.525-0.358,0.995-0.783,1.218s-1.051,0.201-1.431,0.402s-0.515,0.626-0.827,1.084c-0.313,0.458-0.805,0.95-1.229,1.151
	s-0.782,0.111-1.006,0.234s-0.313,0.458-0.348,1.018c-0.033,0.559-0.01,1.341,0,1.844c0.012,0.503,0.012,0.727-0.234,1.017
	c-0.245,0.291-0.737,0.648-0.961,1.006c-0.224,0.358-0.179,0.716-0.011,0.995c0.167,0.279,0.458,0.48,0.559,0.906
	c0.101,0.424,0.01,1.073-0.102,1.61c-0.112,0.537-0.246,0.961-0.335,1.587c-0.09,0.626-0.135,1.453-0.19,2.124
	c-0.056,0.67-0.123,1.185-0.515,1.33c-0.392,0.146-1.106-0.078-1.587,0.079c-0.48,0.156-0.727,0.692-0.861,1.162
	c-0.134,0.47-0.156,0.872-0.503,1.174c-0.346,0.302-1.017,0.503-1.162,0.883s0.235,0.939,0.525,1.464
	c0.291,0.525,0.492,1.017,0.514,1.587c0.022,0.57-0.134,1.218,0.146,1.576c0.28,0.358,0.995,0.425,1.319,0.659
	c0.324,0.235,0.258,0.637,0.246,1.364s0.033,1.777-0.134,2.638c-0.168,0.861-0.548,1.532-0.772,2.09
	c-0.223,0.559-0.29,1.006-0.011,1.174c0.28,0.167,0.905,0.056,1.264,0.145c0.357,0.089,0.446,0.38,0.581,0.85
	c0.134,0.47,0.313,1.118-0.068,1.979c-0.38,0.861-1.318,1.934-1.979,2.583c-0.659,0.648-1.039,0.872-1.531,0.883
	c-0.491,0.011-1.096-0.19-1.699,0.134s-1.207,1.174-1.498,2.012c-0.29,0.838-0.268,1.666-0.357,2.336
	c-0.089,0.67-0.291,1.185-0.548,1.811s-0.569,1.364-0.659,2.057c-0.09,0.693,0.045,1.341,0.123,1.8s0.101,0.727-0.123,1.229
	s-0.693,1.241-1.084,1.453c-0.392,0.212-0.705-0.101-1.13-0.111c-0.425-0.012-0.961,0.279-1.207,0.972
	c-0.245,0.693-0.2,1.789-0.189,2.616s-0.012,1.386-0.079,1.922s-0.179,1.051-0.146,1.542c0.034,0.492,0.213,0.961,0.48,1.263
	c0.269,0.302,0.626,0.436,0.794,0.816s0.146,1.006,0.19,1.621c0.044,0.615,0.156,1.219,0.536,1.498
	c0.38,0.28,1.028,0.235,1.509,0.28c0.48,0.044,0.794,0.179,1.186,0.536c0.391,0.357,0.86,0.939,0.883,1.375
	c0.022,0.436-0.402,0.727-0.749,1.006c-0.347,0.279-0.615,0.547-0.905,0.67c-0.291,0.123-0.604,0.101-0.682,0.235
	c-0.078,0.134,0.078,0.424,0.201,0.76c0.122,0.335,0.212,0.715,0.212,1.229c0,0.514-0.09,1.163,0.156,1.577
	c0.246,0.413,0.827,0.592,1.141,0.894c0.313,0.301,0.357,0.727,0.402,1.062c0.045,0.335,0.09,0.581,0.313,0.793
	c0.224,0.212,0.626,0.391,0.861,0.76c0.234,0.369,0.302,0.928,0.212,1.476c-0.089,0.547-0.335,1.084-0.302,1.799
	s0.347,1.61,0.704,2.213s0.76,0.916,0.995,1.308c0.234,0.391,0.302,0.861,0.291,1.33c-0.012,0.469-0.102,0.939-0.348,1.386
	c-0.245,0.447-0.647,0.872-0.782,1.397c-0.134,0.525,0,1.152,0.19,1.923c0.189,0.771,0.436,1.688,1.006,1.8
	c0.569,0.111,1.464-0.582,2.067-0.973s0.917-0.481,1.319,0c0.402,0.48,0.894,1.531,1.174,2.247c0.279,0.715,0.347,1.095,0.101,1.397
	s-0.805,0.525-1.309,0.939c-0.503,0.414-0.949,1.017-1.062,1.666c-0.111,0.648,0.112,1.341,0.201,1.889
	c0.09,0.548,0.045,0.95-0.146,1.341c-0.189,0.391-0.525,0.771-0.38,1.453s0.771,1.666,0.961,2.471
	c0.19,0.805-0.056,1.431,0.022,2.023s0.481,1.152,0.671,1.722c0.19,0.57,0.168,1.151-0.045,1.531
	c-0.212,0.38-0.614,0.559-1.185,0.582c-0.57,0.022-1.308-0.112-1.744,0.179c-0.436,0.291-0.569,1.006-0.659,1.509
	c-0.09,0.502-0.134,0.793-0.648,1.453c-0.514,0.659-1.498,1.688-2.18,2.492s-1.062,1.386-1.33,1.822s-0.425,0.727-0.369,1.096
	c0.057,0.369,0.324,0.816,0.269,1.43c-0.056,0.615-0.436,1.397-0.727,2.247c-0.29,0.849-0.491,1.766-0.593,2.381
	c-0.1,0.615-0.1,0.928-0.704,1.207c-0.604,0.28-1.811,0.525-2.448,0.917c-0.637,0.391-0.704,0.928-0.626,1.397
	c0.079,0.469,0.303,0.872,0.649,1.151c0.346,0.279,0.815,0.436,1.129,0.625c0.313,0.19,0.469,0.414,0.58,0.783
	s0.179,0.883,0.38,1.476c0.201,0.592,0.537,1.263,0.683,1.923c0.146,0.659,0.101,1.308,0.29,1.934c0.19,0.626,0.615,1.23,0.671,1.61
	c0.056,0.379-0.257,0.536-0.559,0.805c-0.302,0.268-0.593,0.648-0.648,1.196c-0.057,0.547,0.123,1.263,0.111,1.956
	c-0.011,0.693-0.212,1.363-0.38,1.867c-0.168,0.502-0.302,0.838-0.548,1.028s-0.604,0.235-0.961,0.123
	c-0.358-0.112-0.716-0.38-1.129-0.324c-0.414,0.056-0.884,0.436-1.23,0.917c-0.346,0.481-0.569,1.062-0.614,1.632
	c-0.045,0.57,0.089,1.129-0.135,1.464s-0.804,0.447-1.341,0.391c-0.536-0.056-1.028-0.279-1.319-0.011
	c-0.29,0.269-0.38,1.028-0.827,1.342c-0.446,0.313-1.252,0.179-1.554,0.648s-0.101,1.542-0.09,2.213
	c0.012,0.67-0.168,0.938-0.48,1.073s-0.761,0.134-1.051,0.559c-0.291,0.424-0.425,1.274-0.402,2.023s0.201,1.397,0.134,1.867
	c-0.066,0.469-0.38,0.76-0.447,1.308c-0.066,0.548,0.112,1.353,0.302,1.945c0.19,0.593,0.392,0.973,0.269,1.431
	c-0.123,0.458-0.57,0.995-0.85,1.441c-0.279,0.448-0.391,0.805-0.224,1.454c0.168,0.648,0.615,1.587,0.839,2.325
	s0.224,1.274,0.066,1.733c-0.156,0.458-0.469,0.838-0.659,1.263c-0.189,0.425-0.257,0.894,0,1.799
	c0.257,0.906,0.838,2.247,1.24,3.063s0.626,1.106,0.883,1.431c0.256,0.324,0.547,0.682,0.681,1.107
	c0.135,0.425,0.112,0.916-0.066,1.598c-0.18,0.682-0.515,1.554-0.504,2.448c0.012,0.895,0.369,1.811,0.872,2.492
	c0.503,0.683,1.151,1.129,1.699,1.509c0.548,0.381,0.995,0.693,1.129,1.073c0.135,0.38-0.044,0.827-0.268,1.342
	c-0.224,0.514-0.492,1.096-0.895,1.71c-0.402,0.615-0.938,1.264-1.465,1.576c-0.524,0.313-1.039,0.291-1.542,0.324
	s-0.995,0.123-1.621,0.313c-0.626,0.189-1.386,0.48-2.067,0.849c-0.682,0.369-1.286,0.816-1.632,1.264
	c-0.347,0.447-0.436,0.894-0.335,1.934c0.1,1.04,0.391,2.672,0.525,3.7s0.111,1.453-0.079,1.979s-0.548,1.151-0.738,1.911
	c-0.19,0.761-0.212,1.654-0.224,2.28s-0.011,0.983-0.302,1.319c-0.291,0.335-0.872,0.648-1.565,0.548
	c-0.693-0.101-1.498-0.615-2.035-0.392s-0.805,1.186-0.771,2.079c0.033,0.895,0.369,1.722,0.86,2.18s1.141,0.548,1.409,1.196
	s0.156,1.855-0.291,2.705c-0.447,0.85-1.23,1.342-1.71,1.42c-0.481,0.077-0.66-0.258-1.073-0.112
	c-0.414,0.146-1.063,0.771-1.174,1.319c-0.112,0.547,0.313,1.017,0.894,1.285c0.581,0.269,1.319,0.335,1.8,0.727
	s0.704,1.106,0.525,1.699c-0.179,0.593-0.76,1.062-1.174,1.151c-0.414,0.089-0.66-0.201-1.04-0.134
	c-0.38,0.066-0.895,0.491-1.006,1.095c-0.112,0.604,0.179,1.387,0.335,1.99c0.156,0.604,0.179,1.028-0.235,1.441
	c-0.414,0.414-1.263,0.816-1.342,1.486c-0.079,0.671,0.614,1.61,1.062,2.471c0.447,0.86,0.648,1.644,0.682,2.515
	c0.034,0.872-0.101,1.834-0.235,3.119s-0.268,2.896-0.324,3.957s-0.034,1.576,0.101,2.102s0.38,1.062,0.358,1.486
	s-0.313,0.738-0.402,1.196c-0.09,0.458,0.022,1.063,0.335,2.001s0.827,2.214,1.129,3.196c0.302,0.984,0.391,1.678,0.459,2.37
	c0.067,0.693,0.111,1.387,0,1.912c-0.112,0.524-0.38,0.883-0.995,1.062s-1.576,0.179-2.213,0.066
	c-0.637-0.111-0.95-0.335-1.319-0.234c-0.369,0.101-0.794,0.525-1.063,0.995c-0.268,0.47-0.38,0.983-0.185,1.615
	s0.698,1.38,0.972,2.09c0.273,0.71,0.318,1.381,0.139,1.816c-0.179,0.436-0.581,0.637-0.917,0.938s-0.604,0.704-0.793,1.521
	c-0.19,0.815-0.302,2.046-0.347,3.466c-0.045,1.419-0.022,3.028,0.525,4.091c0.548,1.062,1.621,1.576,2.795,1.911
	c1.173,0.336,2.448,0.492,3.13,1.073c0.682,0.581,0.771,1.588,0.715,2.27c-0.056,0.682-0.258,1.039-0.682,1.185
	c-0.425,0.146-1.073,0.078-1.587,0.146s-0.894,0.268-0.95,0.838c-0.056,0.57,0.212,1.509,0.693,2.202
	c0.48,0.693,1.174,1.141,1.945,1.521c0.771,0.38,1.62,0.693,2.078,1.039c0.459,0.347,0.526,0.727,0.302,1.151
	s-0.738,0.895-1.185,1.196c-0.447,0.302-0.827,0.437-0.905,0.693c-0.079,0.257,0.145,0.637,0.413,1.017
	c0.268,0.38,0.581,0.76,0.67,1.241c0.089,0.479-0.045,1.062-0.324,1.632c-0.279,0.569-0.705,1.129-1.14,1.553
	c-0.436,0.426-0.883,0.716-1.14,1.118c-0.257,0.402-0.324,0.917-0.089,1.364c0.234,0.447,0.771,0.827,0.771,1.375
	c0,0.547-0.537,1.263-0.179,1.609c0.357,0.347,1.609,0.324,2.795,0.357c1.185,0.033,2.302,0.123,3.04,0.302
	c0.737,0.179,1.095,0.447,1.822,0.48c0.727,0.034,1.822-0.167,2.571,0.324c0.749,0.492,1.151,1.677,1.129,2.415
	c-0.022,0.737-0.47,1.028-0.895,1.185c-0.425,0.157-0.827,0.179-1.084,0.537c-0.257,0.357-0.369,1.051-0.481,1.665
	c-0.111,0.615-0.223,1.151-0.514,1.476c-0.29,0.324-0.76,0.436-1.24,0.402c-0.481-0.033-0.973-0.212-1.442-0.425
	c-0.47-0.212-0.917-0.458-1.498-0.491c-0.581-0.034-1.296,0.145-2.006,0.056s-1.415-0.447-1.957-0.659
	c-0.542-0.213-0.922-0.279-1.135-0.168c-0.212,0.112-0.257,0.402-0.693,0.514c-0.436,0.112-1.263,0.045-1.9-0.077
	c-0.637-0.123-1.084-0.302-1.375-0.224c-0.291,0.078-0.425,0.413-0.375,1.129c0.05,0.715,0.285,1.811,0.682,2.358
	c0.397,0.547,0.956,0.547,1.37,0.782c0.414,0.234,0.682,0.704,1.095,0.682s0.973-0.537,1.476-0.671
	c0.502-0.134,0.95,0.112,1.43,0.257c0.481,0.146,0.995,0.19,1.509,0.235c0.514,0.044,1.028,0.089,1.498,0.704
	c0.469,0.614,0.894,1.8,1.604,2.532c0.709,0.731,1.704,1.012,2.212,1.688c0.509,0.677,0.531,1.75,0.285,2.253
	s-0.761,0.436-1.319,0.614s-1.162,0.604-1.241,1.174c-0.078,0.57,0.369,1.285,0.168,1.744c-0.201,0.458-1.051,0.659-2.001,0.715
	c-0.95,0.057-2.001-0.033-2.537,0.347c-0.537,0.381-0.559,1.229-0.66,2.247c-0.101,1.017-0.28,2.202,0.134,2.851
	c0.413,0.648,1.419,0.76,2.068,1.185c0.648,0.425,0.939,1.163,0.838,1.833c-0.101,0.671-0.593,1.274-1.23,1.878
	c-0.637,0.603-1.42,1.207-2.001,1.497c-0.581,0.291-0.961,0.269-0.95,0.525c0.011,0.258,0.414,0.794,0.771,1.677
	c0.358,0.884,0.67,2.113,1.017,3.7s0.727,3.532,0.637,4.795c-0.089,1.264-0.648,1.845-1.42,2.203
	c-0.771,0.357-1.755,0.491-2.28,0.894c-0.525,0.402-0.592,1.073-0.547,1.732c0.044,0.66,0.201,1.309,0.168,1.722
	c-0.034,0.413-0.258,0.593,0,1.006c0.257,0.414,0.995,1.063,1.464,1.934c0.469,0.872,0.67,1.968,0.312,2.481
	c-0.358,0.515-1.274,0.447-1.923,0.693s-1.028,0.805-1.486,1.442c-0.459,0.637-0.995,1.353-1.521,1.643
	c-0.525,0.291-1.04,0.157-1.487,0.078c-0.447-0.078-0.827-0.1-0.861,0.28c-0.033,0.379,0.28,1.162,0.124,1.978
	c-0.157,0.816-0.783,1.666-1.454,2.907c-0.67,1.24-1.386,2.873-1.576,3.912c-0.19,1.039,0.145,1.486,0.548,1.979
	c0.402,0.491,0.872,1.028,1.207,1.979c0.335,0.95,0.536,2.313,0.66,3.141c0.123,0.827,0.167,1.118,0.123,1.543
	c-0.044,0.425-0.179,0.983-0.369,1.431c-0.191,0.447-0.438,0.782-0.952,0.973c-0.514,0.189-1.297,0.234-1.878,0.38
	c-0.581,0.145-0.961,0.391-1.05,0.838c-0.09,0.447,0.111,1.096,0.346,2.157c0.235,1.063,0.503,2.538,0.57,3.521
	s-0.067,1.476-0.738,1.989c-0.671,0.515-1.878,1.051-2.716,1.465s-1.308,0.704-1.934,0.793c-0.626,0.09-1.409-0.021-1.912,0.079
	s-0.727,0.413-0.973,0.815c-0.246,0.402-0.514,0.895-0.782,1.465c-0.269,0.57-0.537,1.219-0.682,1.743
	c-0.145,0.525-0.167,0.929,0.123,1.207c0.291,0.28,0.894,0.437,1.084,0.816c0.19,0.38-0.034,0.983-0.268,1.364
	c-0.235,0.38-0.481,0.536-1.364,0.536c-0.883,0-2.403-0.156-3.342-0.246c-0.939-0.089-1.296-0.111-1.431,0.101
	c-0.134,0.213-0.045,0.66-0.246,1.387s-0.693,1.732-0.827,2.548c-0.134,0.816,0.09,1.442,0.19,1.923
	c0.1,0.48,0.078,0.816-0.034,1.106c-0.112,0.291-0.313,0.537,0,0.962s1.14,1.028,1.42,1.509c0.279,0.48,0.011,0.839-0.425,1.363
	c-0.436,0.525-1.04,1.219-0.716,1.744c0.324,0.525,1.576,0.884,1.989,1.336c0.414,0.453-0.012,1-0.548,1.453
	c-0.537,0.453-1.185,0.811-0.967,1.235c0.218,0.425,1.302,0.916,1.995,1.525s0.995,1.336,1.291,2.113
	c0.296,0.776,0.586,1.604,0.564,2.42c-0.023,0.815-0.358,1.621-0.347,2.19c0.011,0.57,0.368,0.905,0.592,1.375
	s0.313,1.073,0.403,1.699c0.089,0.626,0.179,1.274,0.626,1.554c0.447,0.279,1.252,0.19,2.303-0.503s2.347-1.989,3.197-2.381
	c0.849-0.392,1.252,0.123,1.609,0.48c0.358,0.357,0.671,0.56,1.23,0.19c0.559-0.369,1.363-1.308,2.269-1.599
	c0.905-0.29,1.912,0.067,2.604,0.48c0.693,0.414,1.073,0.883,0.984,1.285c-0.089,0.403-0.648,0.738-0.883,1.152
	c-0.234,0.413-0.145,0.905,0.179,1.431c0.324,0.525,0.883,1.084,1.185,1.609c0.302,0.525,0.347,1.018,0.291,1.755
	c-0.056,0.738-0.212,1.721-0.525,2.213s-0.783,0.492-1.185,0.593s-0.737,0.302-1.006,0.648c-0.268,0.347-0.47,0.838-0.089,1.297
	c0.38,0.458,1.341,0.883,1.844,1.308c0.503,0.424,0.548,0.849,0.47,1.29s-0.28,0.899-0.47,1.408s-0.369,1.067-0.592,1.565
	c-0.224,0.497-0.492,0.934-0.9,1.363c-0.408,0.431-0.956,0.855-1.208,1.235c-0.251,0.38-0.207,0.716,0.274,0.866
	c0.481,0.151,1.397,0.117,1.861,0.392c0.464,0.273,0.475,0.855,0.598,1.308c0.123,0.453,0.358,0.776,0.894,1.018
	c0.537,0.24,1.375,0.396,2.258,1.05c0.883,0.654,1.811,1.806,2.063,2.645c0.251,0.838-0.174,1.363-0.319,1.827s-0.011,0.866,5.231,1
	c5.242,0.135,15.594,0,20.992-0.134c5.398-0.135,5.846-0.269,6.963-0.156c1.118,0.111,2.906,0.47,4.985,0.67
	c2.079,0.202,4.449,0.246,5.891,0.437c1.442,0.19,1.956,0.525,2.884,0.928s2.27,0.872,3.924,1.141
	c1.654,0.268,3.622,0.335,4.985,0.894c1.364,0.56,2.124,1.61,2.358,2.437c0.235,0.828-0.056,1.432-0.458,1.923
	c-0.402,0.492-0.917,0.872-1.219,0.783c-0.302-0.09-0.391-0.648-0.76-0.906c-0.369-0.257-1.018-0.212-1.609-0.38
	c-0.593-0.167-1.129-0.548-1.688-0.737c-0.559-0.19-1.14-0.19-1.934-0.112c-0.794,0.079-1.8,0.235-2.627-0.056
	c-0.827-0.29-1.476-1.028-2.157-1.465c-0.682-0.436-1.397-0.569-2.247-0.514c-0.85,0.057-1.833,0.302-2.537,0.581
	c-0.704,0.28-1.129,0.593-1.364,1.051c-0.234,0.458-0.279,1.063-0.559,1.409c-0.279,0.346-0.794,0.436-1.051,0.692
	s-0.257,0.683-0.581,1.118s-0.973,0.883-1.498,1.084s-0.928,0.156-1.441-0.022c-0.515-0.179-1.141-0.491-1.644-0.47
	c-0.503,0.023-0.883,0.381-1.576,0.738c-0.692,0.357-1.699,0.715-2.459,1.073c-0.76,0.357-1.274,0.715-2.124,1.073
	c-0.85,0.356-2.035,0.714-2.873,1.004s-1.33,0.514-1.979,0.604s-1.453,0.045-2.258,0.38s-1.61,1.051-1.923,1.878
	c-0.313,0.827-0.134,1.766-0.112,2.951c0.022,1.185-0.111,2.615-0.425,4.046c-0.313,1.432-0.805,2.861-0.983,4.605
	s-0.045,3.801,0.045,5.365c0.089,1.565,0.134,2.639-0.179,3.645c-0.313,1.006-0.983,1.944-1.9,2.548
	c-0.917,0.604-2.079,0.873-3.421,0.738c-1.341-0.134-2.861-0.671-4.516-1.117c-1.654-0.448-3.443-0.806-4.695-1.23
	s-1.967-0.916-3.376-1.626s-3.51-1.638-4.605-2.935c-1.096-1.297-1.185-2.962-0.692-4.354c0.492-1.392,1.564-2.509,2.303-2.8
	c0.738-0.291,1.14,0.245,1.185,0.983c0.045,0.737-0.268,1.677,0.224,2.124s1.789,0.402,2.325-0.357
	c0.537-0.761,0.313-2.235,0.693-3.019c0.38-0.782,1.364-0.872,1.923-0.514c0.559,0.357,0.693,1.162,0.805,2.257
	c0.111,1.096,0.201,2.482,0.581,3.511c0.38,1.028,1.05,1.698,1.704,1.525s1.291-1.19,1.38-2.398c0.09-1.207-0.368-2.604-0.15-3.615
	c0.218-1.012,1.112-1.638,2.141-2.442c1.029-0.805,2.191-1.788,2.996-2.839s1.252-2.169,1.408-2.929
	c0.157-0.761,0.022-1.163-0.805-1.409c-0.827-0.245-2.347-0.335-3.174-1.028c-0.827-0.692-0.962-1.989-1.587-2.973
	c-0.626-0.983-1.744-1.654-3.421-2.013c-1.677-0.357-3.912-0.402-5.7-0.47c-1.789-0.066-3.13-0.156-4.315-0.134
	c-1.186,0.022-2.213,0.156-3.197,0.313c-0.984,0.156-1.923,0.335-3.063,0.224c-1.14-0.112-2.481-0.515-2.604-1.309
	c-0.123-0.793,0.972-1.979,1.922-2.57c0.95-0.593,1.754-0.593,2.599-0.911c0.844-0.318,1.728-0.956,1.677-1.845
	c-0.05-0.889-1.033-2.029-1.581-2.968s-0.66-1.677-0.302-2.292c0.357-0.614,1.185-1.106,1.542-2.012
	c0.358-0.905,0.246-2.225-0.123-2.75c-0.369-0.524-0.995-0.257-2.057-0.224c-1.062,0.034-2.56-0.167-3.197,0.269
	c-0.637,0.437-0.414,1.509-0.335,2.359c0.078,0.85,0.011,1.475-0.134,2.201c-0.146,0.727-0.369,1.554-0.928,2.034
	c-0.559,0.481-1.453,0.615-2.336,0.962c-0.883,0.347-1.755,0.905-2.538,1.017c-0.782,0.112-1.475-0.223-2.369-0.782
	c-0.895-0.559-1.99-1.342-2.571-2.414c-0.581-1.073-0.648-2.438-0.771-3.354c-0.123-0.916-0.302-1.386-0.369-1.777
	s-0.022-0.704-0.391-0.525s-1.151,0.85-1.9,0.928s-1.464-0.436-1.8-0.983c-0.335-0.548-0.291-1.129-0.425-1.822
	s-0.447-1.498-0.525-2.37c-0.078-0.871,0.079-1.811,0.179-2.425c0.101-0.615,0.145-0.905,0.547-0.895
	c0.402,0.012,1.163,0.324,1.822-0.033c0.66-0.357,1.219-1.386,1.442-2.258c0.223-0.872,0.112-1.587-0.492-1.711
	c-0.604-0.122-1.7,0.348-2.583,0.169c-0.883-0.18-1.554-1.007-2.414-1.454c-0.861-0.446-1.912-0.514-2.538-1.296
	c-0.626-0.783-0.827-2.281-0.715-3.343s0.537-1.688,1.241-1.878s1.688,0.056,2.348,0.168c0.659,0.111,0.995,0.09,0.692-0.414
	c-0.301-0.503-1.241-1.486-1.866-2.291c-0.626-0.805-0.939-1.431-1.286-2.202c-0.347-0.771-0.727-1.688-0.85-2.471
	c-0.123-0.782,0.011-1.431-0.749-2.001c-0.76-0.569-2.414-1.062-3.632-1.576c-1.219-0.514-2.001-1.051-2.281-1.721
	c-0.279-0.671-0.056-1.476,0.608-1.785c0.664-0.309,1.769-0.123,2.529-0.57c0.76-0.447,1.176-1.527,1.474-2.884
	c0.297-1.356,0.476-2.988,0.364-4.564c-0.112-1.576-0.515-3.097-1.006-3.521c-0.492-0.424-1.073,0.246-1.476,1.532
	c-0.402,1.285-0.626,3.186-1.196,4.482c-0.57,1.297-1.487,1.989-2.437,2.291s-1.934,0.213-2.325-1.117
	c-0.392-1.33-0.19-3.901-0.302-5.455c-0.112-1.554-0.537-2.091-0.872-1.564c-0.335,0.524-0.582,2.112-0.984,3.163
	s-0.961,1.564-1.811,0.86c-0.849-0.704-1.99-2.627-3.007-4.605s-1.912-4.013-2.102-5.119c-0.19-1.107,0.324-1.286,1.196-1.61
	s2.102-0.793,2.716-1.721s0.615-2.313,0.358-2.873c-0.258-0.559-0.771-0.29-1.767,0.347c-0.995,0.637-2.47,1.644-3.398,2.258
	c-0.928,0.615-1.308,0.838-1.833,0.614c-0.525-0.224-1.196-0.894-1.397-2.157c-0.201-1.263,0.067-3.118,0.582-4.694
	c0.514-1.576,1.274-2.873,1.43-5.153c0.157-2.28-0.291-5.544-0.335-7.802c-0.044-2.258,0.313-3.51,0.962-4.113
	c0.648-0.604,1.587-0.56,2.392-0.783s1.476-0.715,1.722-1.319c0.246-0.603,0.067-1.318-0.47-1.855
	c-0.537-0.536-1.431-0.894-1.364-1.453c0.067-0.559,1.096-1.318,2.169-1.565c1.074-0.246,2.192,0.021,2.93,0.579
	c0.738,0.559,1.095,1.408,1.811,2.885c0.715,1.476,1.787,3.578,2.726,5.703c0.938,2.124,1.744,4.27,2.19,6.081
	c0.447,1.811,0.537,3.286,0.828,4.605c0.29,1.318,0.782,2.481,0.983,3.733c0.201,1.252,0.112,2.593,0.402,2.839
	s0.961-0.604,1.521-1.878c0.559-1.274,1.006-2.974,1.05-4.538c0.045-1.565-0.313-2.995-0.805-4.807
	c-0.492-1.811-1.118-4.002-1.755-5.478c-0.637-1.477-1.285-2.237-1.519-3.133c-0.234-0.895-0.056-1.922,0.257-2.057
	c0.313-0.134,0.76,0.626,1.599,0.984c0.838,0.358,2.067,0.314,3.71,0.136c1.643-0.178,3.699-0.491,4.169-1.185
	c0.469-0.692-0.648-1.766-2.079-2.235c-1.431-0.469-3.175-0.335-4.359-0.469c-1.185-0.135-1.811-0.537-2.794-0.984
	c-0.984-0.446-2.325-0.938-2.794-1.587c-0.47-0.648-0.067-1.453,0.537-2.079c0.604-0.626,1.408-1.073,2.325-0.872
	s1.945,1.051,2.728,1.363c0.782,0.313,1.319,0.09,1.526-0.447c0.208-0.537,0.084-1.388-0.468-2.037
	c-0.553-0.648-1.537-1.096-1.967-1.788c-0.431-0.692-0.308-1.63,0.401-2.256c0.709-0.625,2.006-0.938,2.833-1.631
	c0.827-0.693,1.185-1.766,1.676-2.571c0.492-0.805,1.118-1.341,1.185-1.811c0.067-0.47-0.425-0.872-0.996-1.712
	s-1.222-2.118-2.016-2.907c-0.795-0.79-1.734-1.092-2.683-0.923c-0.949,0.17-1.908,0.811-1.94,1.466
	c-0.033,0.655,0.861,1.326,1.05,2.135c0.189,0.809-0.327,1.756-0.988,2.123s-1.465,0.154-2.191-0.229s-1.372-0.939-2.253-1.619
	c-0.882-0.681-2-1.485-2.782-2.379c-0.783-0.895-1.23-1.879-1.163-2.684c0.067-0.805,0.648-1.431,0.447-1.677
	c-0.201-0.245-1.185-0.111-2.124,0.067s-1.833,0.402-2.683,0.716c-0.85,0.313-1.654,0.715-1.498,1.676
	c0.156,0.962,1.274,2.482,1.677,3.6c0.402,1.118,0.089,1.834-0.939,2.146c-1.028,0.313-2.772,0.224-3.622-0.201
	c-0.849-0.425-0.805-1.185-1.185-1.812c-0.38-0.626-1.185-1.117-1.341-2.078c-0.157-0.962,0.335-2.393,0.76-3.398
	c0.424-1.006,0.782-1.587,1.587-2.235c0.805-0.648,2.057-1.364,3.107-1.968s1.9-1.095,2.639-1.476
	c0.737-0.38,1.363-0.647,2.012-1.095c0.648-0.447,1.319-1.073,2.235-1.432c0.917-0.357,2.079-0.446,2.772-0.961
	c0.693-0.515,0.917-1.453,0.358-1.944c-0.559-0.492-1.9-0.537-2.951-1.141s-1.811-1.766-2.012-2.504
	c-0.202-0.737,0.156-1.051,1.095-1.163c0.939-0.111,2.459-0.021,3.6-0.089c1.14-0.066,1.9-0.291,2.19-0.939
	c0.291-0.647,0.112-1.721,0.514-2.503s1.386-1.274,1.744-2.079c0.357-0.806,0.089-1.923,0.291-2.906s0.872-1.833,1.778-2.315
	c0.905-0.481,2.046-0.595,2.571,0.824c0.526,1.419,0.436,4.37,0.638,4.504c0.201,0.134,0.693-2.549,1.922-3.487
	c1.229-0.939,3.196-0.135,3.901,1.353c0.704,1.488,0.145,3.658-0.202,5.168c-0.346,1.51-0.48,2.359-0.189,1.912
	c0.29-0.447,1.006-2.19,1.744-3.577c0.738-1.386,1.498-2.414,2.057-1.944c0.559,0.47,0.916,2.437,0.782,4.27
	c-0.134,1.834-0.76,3.532-0.76,5.276s0.625,3.532,1.341,3.733c0.716,0.201,1.521-1.185,1.812-2.526
	c0.29-1.341,0.067-2.638,0.067-3.688s0.223-1.855,1.028-2.549c0.805-0.693,2.191-1.274,2.772-1.811
	c0.581-0.537,0.358-1.028-0.269-1.454c-0.625-0.424-1.654-0.781-2.347-1.362c-0.693-0.582-1.051-1.387-0.805-2.191
	c0.246-0.805,1.095-1.61,2.079-1.677c0.984-0.067,2.102,0.604,3.465,1.207s2.973,1.141,3.778,0.938
	c0.805-0.2,0.805-1.14-0.179-2.057c-0.984-0.916-2.951-1.811-4.561-2.816s-2.861-2.124-3.197-2.795s0.246-0.894,1.61-1.431
	c1.363-0.536,3.51-1.386,5.521-2.705c2.012-1.319,3.89-3.107,4.762-4.427c0.872-1.318,0.738-2.168,0-1.922s-2.079,1.587-3.353,2.861
	s-2.481,2.481-4.069,3.13s-3.555,0.737-4.695,0s-1.453-2.303-1.229-3.51s0.983-2.057,1.967-2.594
	c0.984-0.536,2.191-0.76,3.242-1.498c1.051-0.737,1.945-1.989,1.654-2.48c-0.291-0.492-1.766-0.224-2.75-0.403
	c-0.983-0.179-1.475-0.805-1.989-1.722c-0.515-0.916-1.051-2.123-1.118-3.174c-0.067-1.051,0.335-1.945,1.073-2.303
	s1.811-0.179,2.549-0.47c0.737-0.29,1.14-1.051,1.431-1.833c0.291-0.782,0.469-1.587,0.269-2.615c-0.202-1.029-0.783-2.28-0.85-3.6
	c-0.067-1.319,0.38-2.705,0.961-3.51s1.296-1.028,1.967-1.945c0.67-0.917,1.296-2.526,1.118-3.734
	c-0.179-1.207-1.162-2.012-1.564-3.532c-0.403-1.52-0.224-3.756,0.514-4.694c0.738-0.939,2.034-0.582,3.041-0.627
	c1.006-0.044,1.721-0.491,1.363-1.52c-0.358-1.028-1.789-2.638-2.168-3.845c-0.38-1.208,0.291-2.013,1.118-2.191
	c0.828-0.179,1.811,0.269,2.325-0.112c0.514-0.379,0.559-1.586,0.134-2.324c-0.425-0.738-1.319-1.006-2.08-1.297
	c-0.76-0.291-1.386-0.604-1.453-1.229c-0.067-0.626,0.424-1.564,0.581-2.817c0.156-1.252-0.022-2.816-1.051-3.688
	c-1.029-0.872-2.906-1.051-3.756-0.402s-0.67,2.124-0.648,3.354c0.022,1.229-0.112,2.213-0.827,2.258
	c-0.716,0.045-2.012-0.849-3.287-1.318s-2.526-0.515-3.443-0.447s-1.498,0.245-2.168,0.245s-1.431-0.178-1.565-0.647
	s0.357-1.229,0.157-1.945c-0.202-0.716-1.096-1.386-1.454-2.414c-0.358-1.029-0.179-2.415-0.393-4.221
	C266.29,455.466,265.683,453.239,265.553,452.042L265.553,452.042z M276.708,481.468c-0.933,0.447-1.403,1.141-1.437,1.968
	c-0.033,0.827,0.369,1.789,1.208,2.392c0.838,0.604,2.113,0.851,2.784,0.493c0.67-0.358,0.737-1.319,0.833-2.37
	c0.095-1.051,0.217-2.191-0.419-2.661C279.039,480.82,277.641,481.021,276.708,481.468L276.708,481.468z M280.469,474.661
	c-0.67-0.012-1.274,0.257-1.855,0.704c-0.581,0.447-1.14,1.073-1.218,1.878s0.324,1.789,1.174,2.213
	c0.85,0.426,2.146,0.291,2.985-0.234c0.838-0.525,1.218-1.441,1.318-2.169c0.101-0.726-0.078-1.263-0.536-1.677
	C281.878,474.963,281.14,474.672,280.469,474.661L280.469,474.661z M261.155,483.984c0.112,1.531,0.224,3.074-0.279,4.28
	c-0.503,1.208-1.621,2.08-2.313,2.896c-0.693,0.816-0.961,1.576-1.197,2.313c-0.234,0.738-0.436,1.453-0.145,1.935
	c0.291,0.48,1.073,0.727,1.732,1.095c0.66,0.369,1.196,0.861,2.001,1.118c0.805,0.258,1.878,0.279,2.974,0.515
	c1.095,0.234,2.213,0.682,3.163,0.76s1.733-0.213,2.258-0.626c0.525-0.414,0.794-0.95,0.895-1.397s0.033-0.805,0.626-1.14
	c0.592-0.336,1.844-0.648,2.269-1.342s0.022-1.766,0.201-2.381c0.179-0.614,0.939-0.771,1.051-1.363
	c0.112-0.593-0.425-1.621-1.106-2.448c-0.682-0.827-1.509-1.453-2.08-2.124c-0.57-0.671-0.883-1.386-0.447-1.923
	c0.436-0.536,1.621-0.894,2.202-1.353c0.581-0.458,0.559-1.018,0.38-1.599s-0.514-1.185-0.179-1.956
	c0.335-0.771,1.341-1.71,1.587-2.749c0.246-1.04-0.269-2.18-0.75-3.108c-0.48-0.927-0.928-1.643-1.229-2.201
	c-0.302-0.559-0.458-0.962-0.705-1.129c-0.246-0.168-0.581-0.101-1.699-0.067c-1.118,0.033-3.019,0.033-4.371-0.392
	c-1.353-0.425-2.158-1.273-2.594-1.318s-0.503,0.715-0.559,1.554c-0.056,0.838-0.1,1.755-0.514,2.671
	c-0.414,0.917-1.196,1.834-1.509,2.985s-0.157,2.537-0.022,3.99C260.932,480.933,261.043,482.453,261.155,483.984L261.155,483.984z
	 M254.639,500.482c-0.816-0.569-2.046-0.928-3.085-0.815c-1.04,0.111-1.889,0.693-2.247,1.866c-0.358,1.174-0.224,2.94,0.492,3.645
	c0.716,0.704,2.012,0.347,3.108-0.09c1.095-0.436,1.99-0.95,2.515-1.375c0.525-0.425,0.682-0.76,0.559-1.318
	C255.856,501.835,255.454,501.053,254.639,500.482L254.639,500.482z M268.074,502.45c-1.419-0.257-3.499,0.057-4.862,0.761
	c-1.363,0.704-2.012,1.8-2.012,2.615c0,0.816,0.649,1.353,1.889,1.666c1.241,0.313,3.074,0.402,4.404,0.659s2.158,0.682,2.795,0.638
	c0.637-0.045,1.084-0.56,1.173-1.376c0.089-0.815-0.179-1.934-0.693-2.905C270.254,503.535,269.494,502.708,268.074,502.45
	L268.074,502.45z M265.672,511.493c-0.895,0-1.364,0.426-1.588,1.051c-0.223,0.626-0.201,1.453,0.247,2.516
	c0.447,1.062,1.318,2.358,1.967,3.577c0.648,1.218,1.073,2.358,1.609,3.13s1.185,1.173,1.722,0.748
	c0.536-0.425,0.961-1.676,1.028-2.962c0.067-1.285-0.224-2.604-0.526-3.812c-0.301-1.207-0.614-2.303-1.43-3.063
	C267.885,511.919,266.566,511.493,265.672,511.493L265.672,511.493z M254.65,519.553c-0.604,0.392-1.408,0.213-2.023,0.357
	c-0.615,0.146-1.04,0.615-1.018,1.309c0.022,0.692,0.492,1.609,1.286,2.146c0.794,0.536,1.911,0.692,3.119,0.771
	c1.208,0.079,2.504,0.079,3.477-0.212c0.972-0.291,1.621-0.872,2.269-1.364c0.648-0.491,1.296-0.895,1.487-1.554
	c0.19-0.659-0.079-1.576-0.727-2.515c-0.648-0.939-1.677-1.9-2.057-3.197c-0.38-1.297-0.112-2.929-0.291-3.879
	c-0.179-0.95-0.805-1.218-1.531-0.983s-1.554,0.973-1.923,1.767c-0.369,0.794-0.28,1.643-0.313,2.492
	c-0.034,0.85-0.19,1.699-0.469,2.604S255.253,519.162,254.65,519.553L254.65,519.553z M257.836,528.306
	c-0.235,0.492-0.101,0.983-0.201,1.464c-0.101,0.481-0.437,0.95-0.257,1.342c0.179,0.392,0.872,0.704,1.867,0.737
	c0.995,0.034,2.291-0.212,3.331,0.134c1.04,0.348,1.822,1.286,2.772,1.89s2.067,0.872,2.772,0.827
	c0.704-0.045,0.995-0.402,1.084-1.118c0.09-0.715-0.022-1.788-0.212-2.481c-0.19-0.692-0.458-1.006-0.48-1.431
	s0.201-0.961-0.234-1.699c-0.436-0.737-1.532-1.677-2.392-2.235c-0.861-0.559-1.487-0.737-1.9-0.525
	c-0.414,0.213-0.615,0.816-1.364,1.151s-2.046,0.402-2.996,0.682C258.674,527.321,258.07,527.813,257.836,528.306L257.836,528.306z
	 M237.939,619.461c0.593,0.828,0.838,2.505,1.353,4.047c0.514,1.543,1.296,2.951,1.654,3.778c0.357,0.827,0.291,1.073-0.246,1.084
	c-0.537,0.012-1.543-0.212-2.348-0.413s-1.408-0.38-2.012-0.515c-0.604-0.134-1.208-0.224-1.408-0.793
	c-0.202-0.57,0-1.621,0.189-2.393c0.19-0.771,0.369-1.263,0.269-1.967s-0.481-1.621-0.515-2.259
	c-0.033-0.637,0.28-0.994,0.906-1.185C236.408,618.657,237.347,618.635,237.939,619.461L237.939,619.461z M241.628,632.585
	c-0.346,0.335-0.033,1.229-0.156,2.146c-0.123,0.916-0.682,1.855-1.017,2.917s-0.447,2.247-0.425,3.175s0.179,1.599,0.078,2.291
	c-0.101,0.693-0.458,1.409-0.625,2.18c-0.168,0.771-0.146,1.599,0.145,2.18c0.29,0.582,0.85,0.917,1.296,0.995
	c0.447,0.078,0.783-0.101,1.073-0.593c0.291-0.491,0.537-1.296,0.895-2.001c0.357-0.704,0.827-1.308,1.408-1.922
	c0.581-0.615,1.274-1.241,1.979-1.923c0.704-0.682,1.419-1.419,1.979-2.325c0.559-0.905,0.961-1.979,1.14-2.861
	s0.134-1.576-0.458-2.091c-0.593-0.514-1.733-0.849-2.649-1.162c-0.917-0.313-1.61-0.604-2.459-0.86
	C242.981,632.473,241.975,632.249,241.628,632.585L241.628,632.585z M251.432,640.543c-0.448,0.828-0.895,1.655-0.85,2.304
	c0.044,0.647,0.581,1.117,1.498,1.542c0.917,0.425,2.213,0.806,3.242,0.66c1.028-0.146,1.789-0.816,2.168-1.565
	c0.38-0.749,0.38-1.576-0.234-2.303s-1.845-1.353-2.839-1.531c-0.995-0.179-1.755,0.089-2.213,0.313
	S251.588,640.364,251.432,640.543L251.432,640.543z M247.005,653.152c-0.134,0.47,0,1.342-0.335,2.023
	c-0.336,0.683-1.14,1.174-1.733,1.644c-0.592,0.469-0.972,0.916-1.073,1.441c-0.101,0.525,0.078,1.129-0.056,1.711
	c-0.134,0.581-0.581,1.14-0.928,1.62c-0.347,0.481-0.592,0.884-0.648,1.453c-0.056,0.57,0.078,1.309,0.391,1.565
	c0.313,0.257,0.805,0.034,1.33-0.324c0.525-0.357,1.085-0.85,1.934-1.297c0.85-0.446,1.99-0.85,2.683-0.805s0.939,0.537,1.419,0.749
	c0.481,0.213,1.196,0.146,2.068-0.179s1.9-0.905,2.862-1.722c0.961-0.815,1.855-1.866,2.325-2.783
	c0.469-0.916,0.514-1.699,0.391-2.772c-0.123-1.072-0.414-2.437-0.537-3.543c-0.123-1.106-0.078-1.956-0.559-2.639
	c-0.48-0.682-1.487-1.195-2.739-1.732c-1.252-0.536-2.75-1.095-3.923-1.397c-1.174-0.301-2.023-0.346-2.649,0.022
	c-0.626,0.369-1.028,1.151-1.017,1.812c0.011,0.659,0.436,1.196,0.905,1.654c0.47,0.458,0.984,0.839,1.129,1.308
	c0.146,0.47-0.078,1.028-0.391,1.342C247.542,652.616,247.139,652.684,247.005,653.152L247.005,653.152z M246.189,669.06
	c-0.212,0.57,0.034,1.285,0.101,2.001s-0.044,1.431-0.212,2.246c-0.167,0.816-0.391,1.733-0.391,3.265s0.224,3.678,1.174,4.907
	s2.627,1.543,3.465,1.196c0.838-0.347,0.838-1.353,0.604-2.28c-0.235-0.928-0.704-1.777-0.615-2.481
	c0.09-0.705,0.738-1.264,1.141-1.957c0.402-0.692,0.559-1.52,0.413-3.264c-0.145-1.744-0.592-4.404-1.118-5.734
	c-0.525-1.33-1.129-1.33-1.643-0.994c-0.514,0.335-0.939,1.006-1.486,1.554C247.072,668.064,246.402,668.49,246.189,669.06
	L246.189,669.06z M266.234,676.562c-0.212-0.659-0.615-1.509-1.118-2.102c-0.503-0.592-1.106-0.928-1.867-1.33
	s-1.677-0.872-2.671-2.18c-0.995-1.308-2.068-3.454-2.951-4.326c-0.883-0.871-1.576-0.469-2.034-0.033
	c-0.458,0.436-0.682,0.905-0.738,1.576c-0.056,0.671,0.056,1.543,0.358,2.358c0.302,0.816,0.794,1.576,1.498,2.213
	c0.704,0.638,1.621,1.152,2.548,2.068s1.867,2.235,1.644,2.56s-1.61-0.347-2.504-0.548c-0.894-0.201-1.296,0.067-1.888,0.56
	c-0.593,0.491-1.375,1.207-1.532,1.755c-0.157,0.548,0.313,0.928,1.185,1.609c0.872,0.682,2.146,1.665,2.917,2.516
	c0.771,0.85,1.04,1.564,1.04,2.213s-0.268,1.229-0.167,1.788c0.101,0.56,0.57,1.096,1.241,1.207c0.67,0.112,1.542-0.2,2.191-0.659
	c0.648-0.458,1.073-1.062,1.14-2.046c0.067-0.983-0.224-2.347-0.212-3.342s0.324-1.621,0.738-2.27s0.928-1.318,1.173-1.889
	C266.469,677.69,266.446,677.221,266.234,676.562L266.234,676.562z M270.716,680.081c0.48,0.19,0.928,0.548,1.509,0.895
	c0.582,0.347,1.297,0.682,2.218,0.771c0.921,0.089,2.048-0.068,2.735,0.087c0.687,0.156,0.933,0.626,1.044,1.386
	c0.112,0.76,0.09,1.811,0.157,2.504c0.067,0.692,0.223,1.028,0.118,1.554c-0.105,0.526-0.472,1.243-0.913,1.758
	c-0.441,0.515-0.955,0.827-1.436,1.33c-0.481,0.504-0.928,1.197-1.364,1.744c-0.437,0.548-0.861,0.95-1.688,1.018
	s-2.057-0.201-3.365-0.503c-1.308-0.302-2.694-0.638-3.398-0.984c-0.705-0.346-0.727-0.704-0.447-1.062
	c0.279-0.357,0.86-0.716,1.699-0.905c0.838-0.19,1.934-0.212,2.526-0.537c0.592-0.323,0.682-0.95,0.301-1.464
	c-0.38-0.515-1.229-0.916-1.643-1.151c-0.414-0.234-0.391-0.302-0.357-0.816c0.033-0.514,0.078-1.475,0.101-2.324
	s0.022-1.588,0.134-2.157c0.111-0.57,0.335-0.973,0.704-1.163C269.721,679.868,270.235,679.891,270.716,680.081L270.716,680.081z
	 M258.269,703.376c-0.788,0.324-1.347,1.107-0.978,2.102c0.369,0.995,1.666,2.202,2.621,2.152c0.956-0.051,1.571-1.358,1.979-2.342
	c0.408-0.983,0.61-1.644,0.442-1.917c-0.168-0.274-0.705-0.162-1.481-0.174C260.074,703.187,259.057,703.052,258.269,703.376
	L258.269,703.376z M251.579,689.371c0.492,0.045,1.297,0.224,2.035,0.514c0.737,0.291,1.408,0.693,2.112,1.309
	c0.705,0.614,1.442,1.441,2.046,1.978c0.604,0.537,1.073,0.783,1.744,0.872c0.67,0.09,1.542,0.022,2.303,0.19
	c0.76,0.168,1.408,0.569,2.493,1.017c1.084,0.447,2.604,0.939,3.89,1.408c1.285,0.47,2.336,0.918,3.23,1.42
	c0.894,0.503,1.632,1.063,1.912,1.442c0.279,0.38,0.1,0.581-0.839,0.671c-0.939,0.089-2.638,0.067-4.135-0.045
	c-1.499-0.111-2.795-0.313-3.891-0.525c-1.095-0.212-1.99-0.436-2.861-0.313c-0.872,0.122-1.722,0.592-2.459,0.614
	c-0.738,0.022-1.364-0.402-1.755-0.917c-0.392-0.514-0.548-1.117-1.174-1.878c-0.626-0.76-1.722-1.676-2.56-2.515
	s-1.419-1.599-1.866-2.437c-0.448-0.839-0.761-1.755-0.828-2.259C250.909,689.416,251.087,689.326,251.579,689.371L251.579,689.371z
	 M275.355,698.157c0.537,0.593,1.789,1.487,2.951,2.202c1.163,0.716,2.235,1.252,3.521,1.923c1.285,0.671,2.783,1.476,3.532,1.554
	c0.749,0.079,0.749-0.569,0.816-1.273c0.067-0.705,0.201-1.465,0.514-2.124c0.313-0.66,0.805-1.219,1.52-1.722
	c0.716-0.503,1.654-0.95,2.706-1.096c1.051-0.146,2.213,0.011,3.085-0.045c0.872-0.056,1.453-0.324,1.799-0.626
	c0.347-0.302,0.458-0.637,1.062-0.983s1.699-0.704,2.761-0.995c1.062-0.29,2.09-0.515,2.537-0.749
	c0.448-0.234,0.313-0.48-0.044-1.14s-0.939-1.732-1.342-2.37c-0.402-0.637-0.625-0.838-1.296-0.938
	c-0.67-0.101-1.788-0.101-2.923-0.174c-1.134-0.072-2.286-0.218-3.096-0.279c-0.811-0.062-1.28-0.039-1.716,0.206
	c-0.436,0.246-0.838,0.716-1.224,1.102s-0.754,0.688-1.341,0.884c-0.587,0.195-1.392,0.284-2.028,0.195
	c-0.638-0.09-1.107-0.357-1.565-0.727c-0.458-0.369-0.905-0.839-1.219-1.063c-0.313-0.223-0.492-0.2-1.196,0.012
	c-0.704,0.213-1.934,0.614-2.47,1.028c-0.537,0.414-0.38,0.838-0.279,1.353c0.101,0.514,0.145,1.118,0.592,1.744
	s1.296,1.274,0.816,1.576s-2.292,0.257-3.622,0.424c-1.33,0.168-2.18,0.548-2.694,0.884
	C274.997,697.274,274.818,697.565,275.355,698.157L275.355,698.157z M280.485,727.226c-1.04-0.218-2.739-0.106-3.806,0.514
	c-1.067,0.621-1.504,1.75-1.236,2.538c0.269,0.788,1.241,1.235,2.426,1.14c1.185-0.095,2.582-0.731,3.354-1.302
	s0.917-1.072,0.799-1.599C281.904,727.992,281.524,727.443,280.485,727.226L280.485,727.226z M265.228,708.195
	c-0.012-0.257,0.189-0.503,0.246-0.838s-0.034-0.76-0.056-1.33c-0.022-0.57,0.022-1.285,0.302-1.788
	c0.279-0.503,0.793-0.794,1.71-0.75c0.917,0.045,2.236,0.426,3.376,0.615c1.14,0.19,2.101,0.19,2.984,0.47
	c0.883,0.279,1.688,0.838,2.404,0.916c0.715,0.079,1.341-0.323,2.146-0.302c0.805,0.022,1.789,0.47,2.716,1.007
	c0.928,0.536,1.8,1.162,2.761,1.8c0.961,0.637,2.012,1.285,3.041,1.922c1.028,0.638,2.034,1.264,2.761,1.845
	c0.726,0.581,1.173,1.117,1.062,1.677c-0.112,0.559-0.783,1.141-1.532,1.855c-0.749,0.716-1.576,1.564-2.202,2.437
	c-0.625,0.872-1.051,1.767-1.732,2.225c-0.682,0.458-1.621,0.48-2.18,0.805c-0.559,0.324-0.738,0.95-1.263,1.174
	s-1.397,0.045-2.247-0.246c-0.85-0.29-1.677-0.693-2.605-0.928s-1.956-0.302-2.682-0.402c-0.727-0.101-1.152-0.234-1.252-0.581
	c-0.101-0.347,0.123-0.905,0.525-1.308c0.402-0.403,0.983-0.648,1.263-1.018s0.257-0.86,0.358-1.42
	c0.101-0.559,0.324-1.185,0.302-1.676c-0.022-0.492-0.291-0.85-1.264-1.007c-0.972-0.156-2.649-0.111-3.599-0.224
	c-0.951-0.111-1.174-0.38-1.621-0.647c-0.447-0.269-1.118-0.537-1.341-0.962s0-1.006-0.246-1.453
	c-0.246-0.447-0.961-0.76-1.431-1.051C265.462,708.722,265.238,708.453,265.228,708.195L265.228,708.195z M294.267,715.383
	c-0.48-0.179-0.816,0.201-1.129,0.794c-0.313,0.592-0.604,1.397-1.286,1.944c-0.682,0.548-1.755,0.839-2.124,1.274
	c-0.369,0.437-0.034,1.018-0.357,1.565c-0.325,0.548-1.308,1.062-1.957,1.643s-0.961,1.23-1.531,1.61
	c-0.57,0.38-1.397,0.491-1.219,0.905c0.179,0.413,1.364,1.129,2.336,1.71s1.732,1.028,2.538,1.062
	c0.805,0.034,1.654-0.346,2.347-0.771c0.693-0.425,1.229-0.895,2.381-1.386c1.151-0.492,2.917-1.007,4.427-1.532
	c1.509-0.525,2.761-1.062,4.035-1.33s2.571-0.269,3.756-0.593c1.185-0.323,2.258-0.973,1.621-1.576
	c-0.637-0.604-2.984-1.162-5.287-1.766s-4.561-1.252-6.002-1.944C295.374,716.3,294.748,715.562,294.267,715.383L294.267,715.383z
	 M351.737,737.003c-0.402-1.319-0.536-3.197-0.648-6.64c-0.111-3.443-0.201-8.451-0.224-14.733s0.022-13.838-0.022-18.488
	s-0.179-6.394-0.537-7.534c-0.357-1.14-0.938-1.677-1.386-2.258s-0.76-1.207-1.208-1.006c-0.446,0.201-1.027,1.229-1.608,1.9
	c-0.582,0.671-1.163,0.983-1.633,1.386c-0.469,0.402-0.827,0.895-1.521,0.537c-0.692-0.358-1.721-1.565-2.749-2.057
	c-1.028-0.492-2.057-0.269-2.816,0.066c-0.761,0.335-1.253,0.782-1.342,1.408c-0.09,0.626,0.224,1.432-0.157,2.191
	c-0.379,0.76-1.452,1.476-2.324,2.012c-0.872,0.537-1.543,0.895-2.504,0.782c-0.962-0.111-2.214-0.692-3.063-1.252
	c-0.85-0.559-1.296-1.095-1.967-1.117s-1.564,0.469-1.588,1.386c-0.021,0.917,0.828,2.258,0.738,2.884
	c-0.089,0.627-1.117,0.536-2.057,1.028s-1.788,1.565-2.169,2.817c-0.38,1.252-0.29,2.683,0.403,3.688
	c0.692,1.006,1.989,1.588,2.884,2.034c0.894,0.447,1.386,0.76,2.615,0.514c1.229-0.245,3.197-1.05,4.985-1.653
	s3.398-1.007,4.583-1.007c1.186,0,1.945,0.403,2.303,1.141c0.357,0.738,0.313,1.811-0.872,2.951c-1.185,1.14-3.51,2.347-5.008,2.749
	c-1.498,0.403-2.168,0.001-2.861,0.046c-0.693,0.044-1.408,0.536-1.99,0.916c-0.581,0.38-1.028,0.648-1.453,1.654
	s-0.826,2.75-0.402,4.225c0.425,1.477,1.677,2.684,3.689,3.488c2.012,0.805,4.784,1.207,7.108,1.923
	c2.325,0.715,4.203,1.743,5.366,2.525c1.162,0.783,1.609,1.319,1.185,2.504c-0.425,1.186-1.722,3.019-2.459,3.487
	c-0.738,0.47-0.917-0.424-1.722-1.475s-2.235-2.258-3.845-2.906c-1.61-0.648-3.398-0.738-4.941-0.939
	c-1.542-0.201-2.839-0.514-4.068-0.716c-1.229-0.2-2.392-0.29-2.929-0.849c-0.536-0.56-0.447-1.588-0.357-2.549
	c0.089-0.962,0.179-1.855-0.045-3.04c-0.224-1.186-0.76-2.66-1.141-4.203c-0.38-1.543-0.604-3.152-1.117-3.979
	c-0.515-0.827-1.319-0.872-1.855-0.402c-0.537,0.47-0.805,1.453-1.186,2.392c-0.38,0.939-0.871,1.834-1.453,2.325
	c-0.581,0.492-1.252,0.582-1.587,1.186s-0.335,1.721-0.335,2.794s0,2.102,0.066,2.929c0.067,0.827,0.202,1.453,0.09,2.213
	c-0.111,0.761-0.47,1.654-0.983,2.37c-0.515,0.715-1.186,1.252-2.102,1.431c-0.917,0.179-2.079,0-3.152-0.269
	c-1.073-0.268-2.057-0.626-3.532-0.604c-1.476,0.022-3.443,0.425-4.784,0.782c-1.341,0.358-2.057,0.671-2.884,1.23
	c-0.828,0.559-1.767,1.363-2.169,2.459s-0.268,2.481,0.447,3.353c0.715,0.873,2.012,1.23,3.845,0.828
	c1.833-0.402,4.203-1.565,6.461-1.833c2.257-0.269,4.404,0.357,6.214,1.028c1.812,0.67,3.287,1.386,4.158,2.057
	c0.873,0.671,1.141,1.296,0.56,1.431c-0.581,0.134-2.012-0.224-3.622-0.626c-1.609-0.403-3.397-0.85-4.806-0.85
	c-1.409,0-2.438,0.446-2.08,1.632c0.357,1.185,2.101,3.107,5.007,4.404s6.976,1.967,9.278,1.945
	c2.303-0.022,2.839-0.738,4.068-1.454c1.229-0.715,3.152-1.43,5.053-1.14c1.9,0.291,3.777,1.587,2.95,2.481
	c-0.826,0.895-4.359,1.387-5.029,2.37c-0.671,0.983,1.52,2.459,4.561,3.621c3.04,1.163,6.931,2.013,9.926,2.393
	c2.996,0.38,5.097,0.291,6.729-0.09c1.632-0.38,2.794-1.051,4.181-0.692c1.386,0.357,2.995,1.743,4.314,2.728
	c1.319,0.983,2.348,1.564,3.085,1.027c0.738-0.536,1.185-2.19,0.715-3.912c-0.469-1.721-1.854-3.51-2.95-5.365
	s-1.9-3.777-2.615-4.985c-0.716-1.207-1.342-1.699-1.99-2.324C352.81,739.082,352.14,738.321,351.737,737.003L351.737,737.003z
	 M262.819,402.094c0.503,1.057,1.766,2.152,2.806,2.314c1.039,0.162,1.855-0.609,2.062-1.644c0.207-1.033-0.196-2.33-0.816-3.169
	c-0.621-0.838-1.458-1.219-2.168-1.24c-0.71-0.022-1.291,0.313-1.71,0.989C262.574,400.021,262.316,401.038,262.819,402.094z"/>
</svg>
